<svg id="Ebene_1" data-name="Ebene 1" xmlns="http://www.w3.org/2000/svg" viewBox="0 0 200 200"><defs><style>.cls-1{fill:#1a1a18;}</style></defs><path class="cls-1" d="M100.22,35.52H97.79c-26.29.66-46.94,22.31-47,49.29,0,6,1.19,12.35,3.78,20.16,10.92,32.86,30.7,50.81,41.51,58.58l2.92,2.1,2.92-2.1c10.82-7.78,30.6-25.72,41.51-58.58,2.6-7.81,3.8-14.22,3.78-20.16C147.15,57.84,126.51,36.18,100.22,35.52Zm33.72,66.29c-9.1,27.4-24.77,43.41-34.94,51.42-10.17-8-25.83-24-34.94-51.42-2.24-6.75-3.28-12.14-3.27-17C60.84,63.33,77.17,46.08,98,45.52h2c20.8.56,37.13,17.81,37.18,39.32C137.22,89.67,136.18,95.06,133.94,101.81Z"/><path class="cls-1" d="M99,55.9a28.16,28.16,0,1,0,28.16,28.16A28.19,28.19,0,0,0,99,55.9Zm0,46.31a18.16,18.16,0,1,1,18.16-18.15A18.17,18.17,0,0,1,99,102.21Z"/></svg>